<svg width="16" height="4" viewBox="0 0 16 4" fill="none" xmlns="http://www.w3.org/2000/svg">
<path d="M1.70437 3.39486C1.23562 3.39486 0.833156 3.22914 0.496982 2.89771C0.165542 2.56153 -0.000177503 2.15907 -0.000177503 1.69032C-0.000177503 1.2263 0.165542 0.828576 0.496982 0.497137C0.833156 0.165697 1.23562 -2.24113e-05 1.70437 -2.24113e-05C2.15891 -2.24113e-05 2.55664 0.165697 2.89755 0.497137C3.23846 0.828576 3.40891 1.2263 3.40891 1.69032C3.40891 2.00282 3.32842 2.28928 3.16744 2.54969C3.01119 2.80538 2.80522 3.01134 2.54954 3.16759C2.29386 3.31911 2.01213 3.39486 1.70437 3.39486ZM7.6614 3.39486C7.19265 3.39486 6.79019 3.22914 6.45401 2.89771C6.12257 2.56153 5.95685 2.15907 5.95685 1.69032C5.95685 1.2263 6.12257 0.828576 6.45401 0.497137C6.79019 0.165697 7.19265 -2.24113e-05 7.6614 -2.24113e-05C8.11594 -2.24113e-05 8.51367 0.165697 8.85458 0.497137C9.19549 0.828576 9.36594 1.2263 9.36594 1.69032C9.36594 2.00282 9.28545 2.28928 9.12447 2.54969C8.96822 2.80538 8.76225 3.01134 8.50657 3.16759C8.25089 3.31911 7.96916 3.39486 7.6614 3.39486ZM13.6184 3.39486C13.1497 3.39486 12.7472 3.22914 12.411 2.89771C12.0796 2.56153 11.9139 2.15907 11.9139 1.69032C11.9139 1.2263 12.0796 0.828576 12.411 0.497137C12.7472 0.165697 13.1497 -2.24113e-05 13.6184 -2.24113e-05C14.073 -2.24113e-05 14.4707 0.165697 14.8116 0.497137C15.1525 0.828576 15.323 1.2263 15.323 1.69032C15.323 2.00282 15.2425 2.28928 15.0815 2.54969C14.9252 2.80538 14.7193 3.01134 14.4636 3.16759C14.2079 3.31911 13.9262 3.39486 13.6184 3.39486Z" fill="black"/>
</svg>
